<mxfile host="app.diagrams.net" modified="2021-06-29T09:50:21.557Z" agent="5.0 (Windows NT 10.0; Win64; x64) AppleWebKit/537.36 (KHTML, like Gecko) Chrome/91.0.4472.77 Safari/537.36" etag="5J3toXzpuYmTljy-S0oZ" version="14.8.2" type="github">
  <diagram id="kHwZBiKhNBQdUe7NJK-x" name="Page-1">
    <mxGraphModel dx="731" dy="510" grid="1" gridSize="10" guides="1" tooltips="1" connect="1" arrows="1" fold="1" page="1" pageScale="1" pageWidth="827" pageHeight="1169" math="0" shadow="0">
      <root>
        <mxCell id="0" />
        <mxCell id="1" parent="0" />
        <mxCell id="Q-D_C63KE9UEeSi85FwL-12" style="edgeStyle=orthogonalEdgeStyle;rounded=0;orthogonalLoop=1;jettySize=auto;html=1;exitX=0.5;exitY=1;exitDx=0;exitDy=0;entryX=0.5;entryY=0;entryDx=0;entryDy=0;" edge="1" parent="1" source="Q-D_C63KE9UEeSi85FwL-1" target="Q-D_C63KE9UEeSi85FwL-7">
          <mxGeometry relative="1" as="geometry" />
        </mxCell>
        <mxCell id="Q-D_C63KE9UEeSi85FwL-13" style="edgeStyle=orthogonalEdgeStyle;rounded=0;orthogonalLoop=1;jettySize=auto;html=1;exitX=0.5;exitY=1;exitDx=0;exitDy=0;entryX=0.5;entryY=0;entryDx=0;entryDy=0;" edge="1" parent="1" source="Q-D_C63KE9UEeSi85FwL-1" target="Q-D_C63KE9UEeSi85FwL-8">
          <mxGeometry relative="1" as="geometry" />
        </mxCell>
        <mxCell id="Q-D_C63KE9UEeSi85FwL-14" style="edgeStyle=orthogonalEdgeStyle;rounded=0;orthogonalLoop=1;jettySize=auto;html=1;exitX=0.5;exitY=1;exitDx=0;exitDy=0;entryX=0.5;entryY=0;entryDx=0;entryDy=0;" edge="1" parent="1" source="Q-D_C63KE9UEeSi85FwL-1" target="Q-D_C63KE9UEeSi85FwL-9">
          <mxGeometry relative="1" as="geometry" />
        </mxCell>
        <mxCell id="Q-D_C63KE9UEeSi85FwL-15" style="edgeStyle=orthogonalEdgeStyle;rounded=0;orthogonalLoop=1;jettySize=auto;html=1;exitX=0.5;exitY=1;exitDx=0;exitDy=0;entryX=0.5;entryY=0;entryDx=0;entryDy=0;" edge="1" parent="1" source="Q-D_C63KE9UEeSi85FwL-1" target="Q-D_C63KE9UEeSi85FwL-10">
          <mxGeometry relative="1" as="geometry" />
        </mxCell>
        <mxCell id="Q-D_C63KE9UEeSi85FwL-1" value="图书进销存系统" style="rounded=0;whiteSpace=wrap;html=1;" vertex="1" parent="1">
          <mxGeometry x="250" y="110" width="120" height="60" as="geometry" />
        </mxCell>
        <mxCell id="Q-D_C63KE9UEeSi85FwL-7" value="基础设置" style="rounded=0;whiteSpace=wrap;html=1;" vertex="1" parent="1">
          <mxGeometry x="180" y="220" width="20" height="160" as="geometry" />
        </mxCell>
        <mxCell id="Q-D_C63KE9UEeSi85FwL-8" value="采购管理" style="rounded=0;whiteSpace=wrap;html=1;" vertex="1" parent="1">
          <mxGeometry x="258" y="220" width="20" height="160" as="geometry" />
        </mxCell>
        <mxCell id="Q-D_C63KE9UEeSi85FwL-9" value="销售管理" style="rounded=0;whiteSpace=wrap;html=1;" vertex="1" parent="1">
          <mxGeometry x="336" y="220" width="20" height="160" as="geometry" />
        </mxCell>
        <mxCell id="Q-D_C63KE9UEeSi85FwL-10" value="库存管理" style="rounded=0;whiteSpace=wrap;html=1;" vertex="1" parent="1">
          <mxGeometry x="414" y="220" width="20" height="160" as="geometry" />
        </mxCell>
      </root>
    </mxGraphModel>
  </diagram>
</mxfile>
